<?xml version="1.0" encoding="UTF-8"?>
<svg width="200" height="200" viewBox="0 0 200 200" fill="none" xmlns="http://www.w3.org/2000/svg">
  <!-- Background Circle -->
  <circle cx="100" cy="100" r="100" fill="url(#business-gradient)"/>
  
  <!-- Business Avatar Elements -->
  <path d="M100 60C87.85 60 78 69.85 78 82C78 94.15 87.85 104 100 104C112.15 104 122 94.15 122 82C122 69.85 112.15 60 100 60Z" fill="white"/>
  <path d="M100 112C81.5 112 66 127.5 66 146V164H134V146C134 127.5 118.5 112 100 112Z" fill="white"/>
  
  <!-- Business Tie -->
  <path d="M96 112V164H104V112H100L96 112Z" fill="#3949AB"/>
  <path d="M100 112L104 120L100 128L96 120L100 112Z" fill="#1A237E"/>
  
  <!-- Glasses -->
  <rect x="80" y="78" width="16" height="8" rx="4" fill="#212121"/>
  <rect x="104" y="78" width="16" height="8" rx="4" fill="#212121"/>
  <rect x="96" y="82" width="8" height="1" fill="#212121"/>
  
  <!-- Chart Icon -->
  <rect x="134" y="140" width="24" height="24" rx="12" fill="#33C3BD"/>
  <path d="M142 152H146V158H142V152ZM148 146H152V158H148V146ZM154 149H158V158H154V149Z" fill="white"/>
  
  <!-- Gradients -->
  <defs>
    <linearGradient id="business-gradient" x1="0" y1="0" x2="200" y2="200" gradientUnits="userSpaceOnUse">
      <stop offset="0" stop-color="#33C3BD"/>
      <stop offset="1" stop-color="#0075FF"/>
    </linearGradient>
  </defs>
</svg>