<?xml version="1.0" encoding="UTF-8"?>
<svg width="160" height="160" viewBox="0 0 160 160" fill="none" xmlns="http://www.w3.org/2000/svg">
  <!-- Background with gradient -->
  <circle cx="80" cy="80" r="75" fill="url(#creativeBrainBg)" opacity="0.8">
    <animate attributeName="opacity" values="0.8;0.9;0.8" dur="5s" repeatCount="indefinite"/>
  </circle>
  
  <!-- Brain left hemisphere -->
  <path d="M65 50C55 50 50 60 50 70C50 80 55 85 60 90C65 95 70 97 75 100C77 103 78 105 80 110" 
        stroke="#FF00A0" stroke-width="3" stroke-linecap="round" fill="none" opacity="0">
    <animate attributeName="opacity" values="0;1" dur="1s" begin="0.5s" fill="freeze"/>
    <animate attributeName="stroke-dasharray" values="0 200;200 0" dur="3s" begin="0.5s" fill="freeze"/>
    <animate attributeName="d" 
             values="M65 50C55 50 50 60 50 70C50 80 55 85 60 90C65 95 70 97 75 100C77 103 78 105 80 110;
                     M65 49C55 49 49 59 49 69C49 79 54 84 59 89C64 94 69 96 74 99C76 102 77 104 80 109;
                     M65 50C55 50 50 60 50 70C50 80 55 85 60 90C65 95 70 97 75 100C77 103 78 105 80 110" 
             dur="6s" repeatCount="indefinite"/>
  </path>
  
  <!-- Brain right hemisphere -->
  <path d="M95 50C105 50 110 60 110 70C110 80 105 85 100 90C95 95 90 97 85 100C83 103 82 105 80 110" 
        stroke="#9932CC" stroke-width="3" stroke-linecap="round" fill="none" opacity="0">
    <animate attributeName="opacity" values="0;1" dur="1s" begin="1.5s" fill="freeze"/>
    <animate attributeName="stroke-dasharray" values="0 200;200 0" dur="3s" begin="1.5s" fill="freeze"/>
    <animate attributeName="d" 
             values="M95 50C105 50 110 60 110 70C110 80 105 85 100 90C95 95 90 97 85 100C83 103 82 105 80 110;
                     M95 49C105 49 111 59 111 69C111 79 106 84 101 89C96 94 91 96 86 99C84 102 83 104 80 109;
                     M95 50C105 50 110 60 110 70C110 80 105 85 100 90C95 95 90 97 85 100C83 103 82 105 80 110" 
             dur="6s" repeatCount="indefinite"/>
  </path>
  
  <!-- Brain connectors -->
  <g opacity="0">
    <animate attributeName="opacity" values="0;1" dur="1s" begin="3s" fill="freeze"/>
    
    <!-- Top connector -->
    <path d="M65 50C68 45 72 42 80 42C88 42 92 45 95 50" 
          stroke="#FF79C6" stroke-width="3" stroke-linecap="round" fill="none">
      <animate attributeName="d" 
               values="M65 50C68 45 72 42 80 42C88 42 92 45 95 50;
                       M65 49C68 44 72 41 80 41C88 41 92 44 95 49;
                       M65 50C68 45 72 42 80 42C88 42 92 45 95 50" 
               dur="6s" repeatCount="indefinite"/>
    </path>
    
    <!-- Corpus callosum -->
    <path d="M65 70H95" stroke="#FF79C6" stroke-width="3" stroke-linecap="round">
      <animate attributeName="d" 
               values="M65 70H95;
                       M65 69H95;
                       M65 70H95" 
               dur="6s" repeatCount="indefinite"/>
    </path>
    
    <path d="M67 75H93" stroke="#FF79C6" stroke-width="2" stroke-linecap="round">
      <animate attributeName="d" 
               values="M67 75H93;
                       M67 74H93;
                       M67 75H93" 
               dur="6s" repeatCount="indefinite"/>
    </path>
    
    <path d="M70 80H90" stroke="#FF79C6" stroke-width="2" stroke-linecap="round">
      <animate attributeName="d" 
               values="M70 80H90;
                       M70 79H90;
                       M70 80H90" 
               dur="6s" repeatCount="indefinite"/>
    </path>
  </g>
  
  <!-- Idea light bulbs -->
  <g>
    <!-- Light bulb 1 -->
    <g opacity="0">
      <animate attributeName="opacity" values="0;1" dur="1s" begin="4s" fill="freeze"/>
      <animate attributeName="transform" type="translate" 
               values="0,0; -5,-5; 0,0; 5,5; 0,0" 
               dur="10s" repeatCount="indefinite"/>
      
      <circle cx="40" cy="30" r="10" fill="#FBFF12" opacity="0.8">
        <animate attributeName="r" values="9;10;9" dur="2s" repeatCount="indefinite"/>
        <animate attributeName="opacity" values="0.7;0.9;0.7" dur="2s" repeatCount="indefinite"/>
      </circle>
      
      <path d="M40 23C38 23 36 24 36 27C36 29 37 30 38 31C38 32 39 32 39 33H41C41 32 42 32 42 31C43 30 44 29 44 27C44 24 42 23 40 23Z" 
            fill="#FBFF12" stroke="#FFF" stroke-width="0.5">
        <animate attributeName="opacity" values="0.8;1;0.8" dur="2s" repeatCount="indefinite"/>
      </path>
      
      <!-- Light rays -->
      <line x1="30" y1="30" x2="35" y2="30" stroke="#FBFF12" stroke-width="1" opacity="0.6">
        <animate attributeName="opacity" values="0.2;0.6;0.2" dur="1.5s" repeatCount="indefinite"/>
      </line>
      
      <line x1="40" y1="20" x2="40" y2="25" stroke="#FBFF12" stroke-width="1" opacity="0.6">
        <animate attributeName="opacity" values="0.2;0.6;0.2" dur="1.5s" begin="0.2s" repeatCount="indefinite"/>
      </line>
      
      <line x1="50" y1="30" x2="45" y2="30" stroke="#FBFF12" stroke-width="1" opacity="0.6">
        <animate attributeName="opacity" values="0.2;0.6;0.2" dur="1.5s" begin="0.4s" repeatCount="indefinite"/>
      </line>
    </g>
    
    <!-- Light bulb 2 -->
    <g opacity="0">
      <animate attributeName="opacity" values="0;1" dur="1s" begin="4.3s" fill="freeze"/>
      <animate attributeName="transform" type="translate" 
               values="0,0; 5,5; 0,0; -5,-5; 0,0" 
               dur="9s" repeatCount="indefinite"/>
      
      <circle cx="120" cy="40" r="10" fill="#25D366" opacity="0.8">
        <animate attributeName="r" values="9;10;9" dur="2s" begin="0.3s" repeatCount="indefinite"/>
        <animate attributeName="opacity" values="0.7;0.9;0.7" dur="2s" begin="0.3s" repeatCount="indefinite"/>
      </circle>
      
      <path d="M120 33C118 33 116 34 116 37C116 39 117 40 118 41C118 42 119 42 119 43H121C121 42 122 42 122 41C123 40 124 39 124 37C124 34 122 33 120 33Z" 
            fill="#25D366" stroke="#FFF" stroke-width="0.5">
        <animate attributeName="opacity" values="0.8;1;0.8" dur="2s" begin="0.3s" repeatCount="indefinite"/>
      </path>
      
      <!-- Light rays -->
      <line x1="110" y1="40" x2="115" y2="40" stroke="#25D366" stroke-width="1" opacity="0.6">
        <animate attributeName="opacity" values="0.2;0.6;0.2" dur="1.5s" begin="0.5s" repeatCount="indefinite"/>
      </line>
      
      <line x1="120" y1="30" x2="120" y2="35" stroke="#25D366" stroke-width="1" opacity="0.6">
        <animate attributeName="opacity" values="0.2;0.6;0.2" dur="1.5s" begin="0.7s" repeatCount="indefinite"/>
      </line>
      
      <line x1="130" y1="40" x2="125" y2="40" stroke="#25D366" stroke-width="1" opacity="0.6">
        <animate attributeName="opacity" values="0.2;0.6;0.2" dur="1.5s" begin="0.9s" repeatCount="indefinite"/>
      </line>
    </g>
    
    <!-- Light bulb 3 -->
    <g opacity="0">
      <animate attributeName="opacity" values="0;1" dur="1s" begin="4.6s" fill="freeze"/>
      <animate attributeName="transform" type="translate" 
               values="0,0; -5,5; 0,0; 5,-5; 0,0" 
               dur="11s" repeatCount="indefinite"/>
      
      <circle cx="30" cy="120" r="10" fill="#00BFFF" opacity="0.8">
        <animate attributeName="r" values="9;10;9" dur="2s" begin="0.6s" repeatCount="indefinite"/>
        <animate attributeName="opacity" values="0.7;0.9;0.7" dur="2s" begin="0.6s" repeatCount="indefinite"/>
      </circle>
      
      <path d="M30 113C28 113 26 114 26 117C26 119 27 120 28 121C28 122 29 122 29 123H31C31 122 32 122 32 121C33 120 34 119 34 117C34 114 32 113 30 113Z" 
            fill="#00BFFF" stroke="#FFF" stroke-width="0.5">
        <animate attributeName="opacity" values="0.8;1;0.8" dur="2s" begin="0.6s" repeatCount="indefinite"/>
      </path>
      
      <!-- Light rays -->
      <line x1="20" y1="120" x2="25" y2="120" stroke="#00BFFF" stroke-width="1" opacity="0.6">
        <animate attributeName="opacity" values="0.2;0.6;0.2" dur="1.5s" begin="1.1s" repeatCount="indefinite"/>
      </line>
      
      <line x1="30" y1="110" x2="30" y2="115" stroke="#00BFFF" stroke-width="1" opacity="0.6">
        <animate attributeName="opacity" values="0.2;0.6;0.2" dur="1.5s" begin="1.3s" repeatCount="indefinite"/>
      </line>
      
      <line x1="40" y1="120" x2="35" y2="120" stroke="#00BFFF" stroke-width="1" opacity="0.6">
        <animate attributeName="opacity" values="0.2;0.6;0.2" dur="1.5s" begin="1.5s" repeatCount="indefinite"/>
      </line>
    </g>
    
    <!-- Light bulb 4 -->
    <g opacity="0">
      <animate attributeName="opacity" values="0;1" dur="1s" begin="4.9s" fill="freeze"/>
      <animate attributeName="transform" type="translate" 
               values="0,0; 5,-5; 0,0; -5,5; 0,0" 
               dur="12s" repeatCount="indefinite"/>
      
      <circle cx="130" cy="130" r="10" fill="#FF512F" opacity="0.8">
        <animate attributeName="r" values="9;10;9" dur="2s" begin="0.9s" repeatCount="indefinite"/>
        <animate attributeName="opacity" values="0.7;0.9;0.7" dur="2s" begin="0.9s" repeatCount="indefinite"/>
      </circle>
      
      <path d="M130 123C128 123 126 124 126 127C126 129 127 130 128 131C128 132 129 132 129 133H131C131 132 132 132 132 131C133 130 134 129 134 127C134 124 132 123 130 123Z" 
            fill="#FF512F" stroke="#FFF" stroke-width="0.5">
        <animate attributeName="opacity" values="0.8;1;0.8" dur="2s" begin="0.9s" repeatCount="indefinite"/>
      </path>
      
      <!-- Light rays -->
      <line x1="120" y1="130" x2="125" y2="130" stroke="#FF512F" stroke-width="1" opacity="0.6">
        <animate attributeName="opacity" values="0.2;0.6;0.2" dur="1.5s" begin="1.7s" repeatCount="indefinite"/>
      </line>
      
      <line x1="130" y1="120" x2="130" y2="125" stroke="#FF512F" stroke-width="1" opacity="0.6">
        <animate attributeName="opacity" values="0.2;0.6;0.2" dur="1.5s" begin="1.9s" repeatCount="indefinite"/>
      </line>
      
      <line x1="140" y1="130" x2="135" y2="130" stroke="#FF512F" stroke-width="1" opacity="0.6">
        <animate attributeName="opacity" values="0.2;0.6;0.2" dur="1.5s" begin="2.1s" repeatCount="indefinite"/>
      </line>
    </g>
  </g>
  
  <!-- Creative energy flowing through the brain -->
  <g>
    <!-- Energy pulses along left hemisphere -->
    <circle cx="65" cy="50" r="2" fill="#FF00A0" opacity="0">
      <animate attributeName="opacity" values="0;1;0" dur="4s" begin="5.2s" repeatCount="indefinite"/>
      <animate attributeName="cx" values="65;55;50;60;70;75;80" dur="4s" begin="5.2s" repeatCount="indefinite"/>
      <animate attributeName="cy" values="50;55;70;85;95;100;110" dur="4s" begin="5.2s" repeatCount="indefinite"/>
    </circle>
    
    <!-- Energy pulses along right hemisphere -->
    <circle cx="95" cy="50" r="2" fill="#9932CC" opacity="0">
      <animate attributeName="opacity" values="0;1;0" dur="4s" begin="5.7s" repeatCount="indefinite"/>
      <animate attributeName="cx" values="95;105;110;100;90;85;80" dur="4s" begin="5.7s" repeatCount="indefinite"/>
      <animate attributeName="cy" values="50;55;70;85;95;100;110" dur="4s" begin="5.7s" repeatCount="indefinite"/>
    </circle>
  </g>
  
  <!-- Spark of creativity at brain center -->
  <g opacity="0">
    <animate attributeName="opacity" values="0;1" dur="1s" begin="6.2s" fill="freeze"/>
    
    <circle cx="80" cy="80" r="12" fill="url(#creativeSpark)">
      <animate attributeName="r" values="10;12;10" dur="3s" repeatCount="indefinite"/>
    </circle>
  </g>
  
  <!-- Creative thought bubbles -->
  <g opacity="0">
    <animate attributeName="opacity" values="0;1" dur="1s" begin="6.7s" fill="freeze"/>
    
    <!-- Music note -->
    <g>
      <circle cx="55" cy="40" r="4" fill="#FF79C6" opacity="0.9">
        <animate attributeName="cy" values="40;38;40" dur="3s" repeatCount="indefinite"/>
        <animate attributeName="opacity" values="0.7;0.9;0.7" dur="3s" repeatCount="indefinite"/>
      </circle>
      
      <path d="M56 37L56 43M56 43C57 43 58 42 58 41C58 40 57 39 56 39C55 39 54 40 54 41C54 42 55 43 56 43Z" 
            stroke="#FFF" stroke-width="0.5" fill="none">
        <animate attributeName="opacity" values="0.7;1;0.7" dur="3s" repeatCount="indefinite"/>
      </path>
    </g>
    
    <!-- Art palette -->
    <g>
      <circle cx="105" cy="35" r="4" fill="#8B5CF6" opacity="0.9">
        <animate attributeName="cy" values="35;32;35" dur="4s" repeatCount="indefinite"/>
        <animate attributeName="opacity" values="0.7;0.9;0.7" dur="3s" begin="0.5s" repeatCount="indefinite"/>
      </circle>
      
      <circle cx="103" cy="34" r="1" fill="#FF512F"/>
      <circle cx="105" cy="33" r="1" fill="#FBFF12"/>
      <circle cx="107" cy="34" r="1" fill="#00BFFF"/>
      <circle cx="106" cy="36" r="1" fill="#25D366"/>
    </g>
    
    <!-- Writing pen -->
    <g>
      <circle cx="45" cy="105" r="4" fill="#00BFFF" opacity="0.9">
        <animate attributeName="cy" values="105;102;105" dur="3.5s" repeatCount="indefinite"/>
        <animate attributeName="opacity" values="0.7;0.9;0.7" dur="3s" begin="1s" repeatCount="indefinite"/>
      </circle>
      
      <path d="M43 103L47 107M46 104L44 106" stroke="#FFF" stroke-width="0.5">
        <animate attributeName="opacity" values="0.7;1;0.7" dur="3s" begin="1s" repeatCount="indefinite"/>
      </path>
    </g>
    
    <!-- Innovation lightbulb -->
    <g>
      <circle cx="115" cy="110" r="4" fill="#FF512F" opacity="0.9">
        <animate attributeName="cy" values="110;107;110" dur="5s" repeatCount="indefinite"/>
        <animate attributeName="opacity" values="0.7;0.9;0.7" dur="3s" begin="1.5s" repeatCount="indefinite"/>
      </circle>
      
      <path d="M115 108.5C114 108.5 113 109 113 110C113 110.5 113.5 111 114 111.5C114 111.75 114.5 111.75 114.5 112H115.5C115.5 111.75 116 111.75 116 111.5C116.5 111 117 110.5 117 110C117 109 116 108.5 115 108.5Z" 
            fill="#FBFF12" stroke="#FFF" stroke-width="0.25">
        <animate attributeName="opacity" values="0.8;1;0.8" dur="2s" begin="1.5s" repeatCount="indefinite"/>
      </path>
    </g>
  </g>
  
  <!-- Pulsing outer ring -->
  <circle cx="80" cy="80" r="60" stroke="url(#creativeRing)" stroke-width="2" fill="none" opacity="0">
    <animate attributeName="opacity" values="0;0.7" dur="1s" begin="7.2s" fill="freeze"/>
    <animate attributeName="r" values="58;60;58" dur="4s" repeatCount="indefinite"/>
    <animate attributeName="stroke-width" values="1;2;1" dur="4s" repeatCount="indefinite"/>
  </circle>
  
  <!-- Gradients and definitions -->
  <defs>
    <linearGradient id="creativeBrainBg" x1="0%" y1="0%" x2="100%" y2="100%">
      <stop offset="0%" stop-color="#6C00A8"/>
      <stop offset="100%" stop-color="#440461"/>
    </linearGradient>
    
    <radialGradient id="creativeSpark" cx="50%" cy="50%" r="50%" fx="50%" fy="50%">
      <stop offset="0%" stop-color="#FBFF12">
        <animate attributeName="stop-color" values="#FBFF12;#FF79C6;#FBFF12" dur="6s" repeatCount="indefinite"/>
      </stop>
      <stop offset="100%" stop-color="#FF00A0">
        <animate attributeName="stop-color" values="#FF00A0;#9932CC;#FF00A0" dur="6s" repeatCount="indefinite"/>
      </stop>
    </radialGradient>
    
    <linearGradient id="creativeRing" x1="0%" y1="0%" x2="100%" y2="100%">
      <stop offset="0%" stop-color="#FF00A0"/>
      <stop offset="25%" stop-color="#9932CC"/>
      <stop offset="50%" stop-color="#00BFFF"/>
      <stop offset="75%" stop-color="#FF512F"/>
      <stop offset="100%" stop-color="#FBFF12"/>
      <animate attributeName="x1" values="0%;100%;0%" dur="10s" repeatCount="indefinite"/>
      <animate attributeName="y1" values="0%;100%;0%" dur="10s" repeatCount="indefinite"/>
    </linearGradient>
  </defs>
</svg>